<?xml version="1.0" standalone="no"?>
<!DOCTYPE svg PUBLIC "-//W3C//DTD SVG 20010904//EN"
 "http://www.w3.org/TR/2001/REC-SVG-20010904/DTD/svg10.dtd">
<svg version="1.0" xmlns="http://www.w3.org/2000/svg"
 width="180.000000pt" height="180.000000pt" viewBox="0 0 180.000000 180.000000"
 preserveAspectRatio="xMidYMid meet">
<metadata>
Created by potrace 1.14, written by Peter Selinger 2001-2017
</metadata>
<g transform="translate(0.000000,180.000000) scale(0.100000,-0.100000)"
fill="#000000" stroke="none">
<path d="M717 1623 c18 -2 50 -2 70 0 21 2 7 4 -32 4 -38 0 -55 -2 -38 -4z"/>
<path d="M608 1613 c6 -2 18 -2 25 0 6 3 1 5 -13 5 -14 0 -19 -2 -12 -5z"/>
<path d="M905 1606 c121 -20 189 -42 310 -102 61 -30 101 -47 90 -38 -27 21
-181 98 -228 113 -20 7 -35 16 -33 20 3 4 -9 7 -27 7 -18 0 -68 3 -112 7 l-80
7 80 -14z"/>
<path d="M370 1498 c-19 -32 -26 -89 -20 -168 2 -35 31 -102 56 -130 22 -26
16 -118 -15 -240 -46 -176 -53 -246 -49 -466 4 -150 9 -212 22 -251 22 -70 59
-113 97 -113 16 0 29 4 29 8 0 5 26 13 58 18 l57 9 5 50 6 50 12 -42 c7 -23
18 -45 24 -50 17 -10 92 -4 96 8 3 6 10 5 18 -2 7 -6 60 -14 117 -16 l103 -6
17 39 c15 37 16 37 11 7 -3 -20 0 -34 8 -39 7 -4 55 -9 107 -11 51 -1 110 -7
129 -13 78 -21 129 40 157 190 l7 35 -24 -32 c-71 -97 -224 -98 -315 -2 -41
43 -53 76 -54 148 -1 40 4 66 16 84 20 32 13 34 -21 8 -38 -30 -147 -46 -216
-32 -64 14 -157 75 -201 133 -38 49 -87 159 -87 193 l0 30 125 0 c145 0 155 5
163 84 4 48 6 51 37 57 58 10 72 0 77 -58 8 -75 28 -88 134 -88 46 0 84 4 84
8 0 5 -14 7 -30 4 -37 -5 -130 6 -149 18 -17 10 -27 118 -13 137 4 7 30 15 58
18 49 6 49 6 18 -8 -31 -15 -74 -61 -74 -80 0 -6 15 5 33 24 17 19 29 31 25
25 -11 -14 -10 -74 1 -80 5 -4 32 -1 61 5 49 11 51 12 48 42 -2 22 -11 35 -28
44 -19 10 -21 13 -7 13 29 0 57 -19 77 -53 12 -19 20 -26 20 -16 0 23 -29 55
-65 74 l-30 15 48 0 c74 0 87 -11 87 -73 0 -29 5 -58 10 -63 7 -7 6 -43 -5
-112 -18 -119 -19 -152 -5 -152 6 0 40 46 78 102 37 57 77 107 88 113 19 9 19
14 8 65 -6 30 -16 68 -23 83 -6 16 -11 46 -11 68 0 31 4 39 19 39 20 0 89 43
108 69 20 26 15 66 -15 107 -40 54 -44 57 -157 99 -204 76 -393 93 -475 42
-32 -20 -49 -22 -181 -22 -145 0 -146 0 -190 30 -24 17 -50 36 -57 43 -18 17
-20 16 -42 -20z m700 -164 c125 -31 202 -73 208 -114 3 -20 1 -22 -20 -16
-150 44 -363 62 -529 45 -181 -19 -213 -18 -217 4 -13 67 149 120 343 113 66
-2 140 -13 215 -32z m-55 -103 l40 -7 -43 -7 c-65 -11 -49 -31 28 -35 56 -3
68 -7 108 -40 l45 -37 -116 -5 c-102 -4 -118 -8 -139 -27 -30 -28 -125 -33
-134 -8 -9 22 -69 35 -162 35 l-83 0 16 30 c21 41 43 50 119 50 52 0 66 3 66
15 0 8 -12 18 -27 22 l-28 7 25 7 c33 9 235 10 285 0z m-372 -158 c-27 -5 -73
-51 -73 -72 0 -11 6 -7 17 11 16 25 51 48 75 48 6 0 -1 -9 -16 -21 -15 -12
-26 -30 -26 -44 0 -20 7 -25 43 -33 74 -15 106 13 72 64 -16 25 -16 25 4 15
11 -6 25 -19 30 -29 6 -9 11 -12 11 -6 0 14 -39 50 -70 64 -21 9 -18 10 20 5
24 -3 48 -11 53 -18 12 -19 3 -127 -13 -137 -24 -15 -100 -22 -164 -15 -75 8
-97 18 -78 37 17 17 15 33 -3 18 -13 -11 -15 -6 -15 34 0 66 23 86 98 85 31
-1 47 -4 35 -6z m27 -58 c0 -8 -4 -15 -9 -15 -13 0 -22 16 -14 24 11 11 23 6
23 -9z m372 0 c0 -5 -5 -11 -11 -13 -6 -2 -11 4 -11 13 0 9 5 15 11 13 6 -2
11 -8 11 -13z m-550 -190 c4 -21 1 -25 -18 -25 -17 0 -24 6 -24 18 0 39 35 45
42 7z"/>
<path d="M800 808 c0 -43 91 -56 122 -18 23 28 15 39 -10 17 -24 -22 -70 -22
-94 0 -16 14 -18 14 -18 1z"/>
<path d="M1362 730 c-52 -80 -77 -129 -68 -137 2 -3 7 6 11 19 16 52 72 77
103 46 9 -9 12 6 12 70 0 45 -1 82 -3 82 -2 0 -26 -36 -55 -80z"/>
<path d="M1048 761 c-1 -6 -42 -18 -91 -29 -85 -18 -90 -18 -174 0 -48 10 -88
16 -90 14 -7 -6 18 -42 37 -54 10 -6 28 -8 40 -5 12 3 17 9 11 12 -15 10 127
2 178 -10 37 -8 46 -7 63 8 25 22 52 73 39 73 -5 0 -11 -4 -13 -9z"/>
<path d="M848 653 c12 -2 32 -2 45 0 12 2 2 4 -23 4 -25 0 -35 -2 -22 -4z"/>
<path d="M1378 536 c-10 -7 -18 -18 -18 -24 0 -19 -48 -45 -73 -39 -12 3 -36
11 -54 18 -28 11 -37 11 -68 -4 -23 -11 -35 -24 -35 -37 0 -26 17 -26 25 0 8
25 49 36 81 21 38 -17 78 -13 108 10 l26 20 26 -20 c31 -25 57 -27 74 -6 11
13 8 15 -18 15 -31 0 -47 13 -53 42 -3 14 -7 15 -21 4z"/>
</g>
</svg>
